<svg width="48" height="48" viewBox="0 0 48 48" fill="none" xmlns="http://www.w3.org/2000/svg">
<path d="M6 21.2816C6 16.8633 9.58172 13.2816 14 13.2816H34C38.4183 13.2816 42 16.8633 42 21.2816V33.2816C42 37.6998 38.4183 41.2816 34 41.2816H14C9.58172 41.2816 6 37.6998 6 33.2816V21.2816Z" stroke="#09183F" stroke-width="1.5"/>
<path fill-rule="evenodd" clip-rule="evenodd" d="M27.4057 10.2672L27.3619 10.2419C25.2552 9.02562 23.6158 8.07911 22.2374 7.48733C20.8339 6.88483 19.6118 6.60892 18.3492 6.82081C17.925 6.89201 17.5085 7.00359 17.1056 7.15405C15.9062 7.60181 14.9858 8.45184 14.0716 9.67534C13.6097 10.2936 13.1349 11.0276 12.6172 11.8815C13.0686 11.8156 13.5303 11.7816 14 11.7816H14.4451C14.7337 11.331 15.0067 10.9299 15.2732 10.5732C16.1016 9.46443 16.8099 8.86557 17.6302 8.55931C17.9436 8.44229 18.2675 8.3555 18.5975 8.30012C19.461 8.15519 20.3738 8.3197 21.6456 8.86569C22.9329 9.4183 24.4959 10.3193 26.6557 11.5662L27.0286 11.7816H30.0286L27.4057 10.2672Z" fill="#09183F"/>
<path d="M28.0416 26.2816C28.0416 24.0724 29.8325 22.2816 32.0416 22.2816H42V32.2816H32.0416C29.8325 32.2816 28.0416 30.4907 28.0416 28.2816V26.2816Z" stroke="#09183F" stroke-width="1.5"/>
<circle cx="33.0033" cy="27.2816" r="1.5" fill="#09183F"/>
</svg>
