<svg width="32" height="24" viewBox="0 0 32 24" fill="none" xmlns="http://www.w3.org/2000/svg">
<path d="M10 10C10 8.93913 10.4214 7.92172 11.1716 7.17157C11.9217 6.42143 12.9391 6 14 6C15.0609 6 16.0783 6.42143 16.8284 7.17157C17.5786 7.92172 18 8.93913 18 10C18 11.0609 17.5786 12.0783 16.8284 12.8284C16.0783 13.5786 15.0609 14 14 14C12.9391 14 11.9217 13.5786 11.1716 12.8284C10.4214 12.0783 10 11.0609 10 10ZM14 8C13.4696 8 12.9609 8.21071 12.5858 8.58579C12.2107 8.96086 12 9.46957 12 10C12 10.5304 12.2107 11.0391 12.5858 11.4142C12.9609 11.7893 13.4696 12 14 12C14.5304 12 15.0391 11.7893 15.4142 11.4142C15.7893 11.0391 16 10.5304 16 10C16 9.46957 15.7893 8.96086 15.4142 8.58579C15.0391 8.21071 14.5304 8 14 8Z" fill="#4F7ABA"/>
<path d="M3 0C2.20435 0 1.44129 0.31607 0.87868 0.878679C0.316071 1.44129 0 2.20435 0 3V17C0 17.7956 0.316071 18.5587 0.87868 19.1213C1.44129 19.6839 2.20435 20 3 20H25C25.7956 20 26.5587 19.6839 27.1213 19.1213C27.6839 18.5587 28 17.7956 28 17V3C28 2.20435 27.6839 1.44129 27.1213 0.878679C26.5587 0.31607 25.7956 0 25 0H3ZM2 3C2 2.73478 2.10536 2.48043 2.29289 2.29289C2.48043 2.10536 2.73478 2 3 2H6V4C6 4.53043 5.78929 5.03914 5.41421 5.41421C5.03914 5.78929 4.53043 6 4 6H2V3ZM2 8H4C5.06087 8 6.07828 7.57857 6.82843 6.82843C7.57857 6.07828 8 5.06087 8 4V2H20V4C20 5.06087 20.4214 6.07828 21.1716 6.82843C21.9217 7.57857 22.9391 8 24 8H26V12H24C22.9391 12 21.9217 12.4214 21.1716 13.1716C20.4214 13.9217 20 14.9391 20 16V18H8V16C8 14.9391 7.57857 13.9217 6.82843 13.1716C6.07828 12.4214 5.06087 12 4 12H2V8ZM22 2H25C25.2652 2 25.5196 2.10536 25.7071 2.29289C25.8946 2.48043 26 2.73478 26 3V6H24C23.4696 6 22.9609 5.78929 22.5858 5.41421C22.2107 5.03914 22 4.53043 22 4V2ZM26 14V17C26 17.2652 25.8946 17.5196 25.7071 17.7071C25.5196 17.8946 25.2652 18 25 18H22V16C22 15.4696 22.2107 14.9609 22.5858 14.5858C22.9609 14.2107 23.4696 14 24 14H26ZM6 18H3C2.73478 18 2.48043 17.8946 2.29289 17.7071C2.10536 17.5196 2 17.2652 2 17V14H4C4.53043 14 5.03914 14.2107 5.41421 14.5858C5.78929 14.9609 6 15.4696 6 16V18Z" fill="#4F7ABA"/>
<path d="M29.9999 16.9999C29.9999 18.326 29.4731 19.5978 28.5355 20.5355C27.5978 21.4731 26.326 21.9999 24.9999 21.9999H4.16992C4.37681 22.5851 4.76009 23.0917 5.26694 23.4499C5.77379 23.8081 6.37927 24.0002 6.99992 23.9999H24.9999C26.8564 23.9999 28.6369 23.2624 29.9497 21.9497C31.2624 20.6369 31.9999 18.8564 31.9999 16.9999V6.99992C32.0002 6.37927 31.8081 5.77379 31.4499 5.26694C31.0917 4.76009 30.5851 4.37681 29.9999 4.16992V16.9999Z" fill="#4F7ABA"/>
</svg>
