<svg width="32" height="28" viewBox="0 0 32 28" fill="none" xmlns="http://www.w3.org/2000/svg">
<path d="M6.89567 0.541748C6.1608 0.541748 5.45603 0.833674 4.9364 1.35331C4.41676 1.87294 4.12484 2.57771 4.12484 3.31258V7.27092C4.12484 8.80042 5.36617 10.0417 6.89567 10.0417H10.854C11.5889 10.0417 12.2936 9.74982 12.8133 9.23019C13.3329 8.71056 13.6248 8.00579 13.6248 7.27092V3.31258C13.6248 2.57771 13.3329 1.87294 12.8133 1.35331C12.2936 0.833674 11.5889 0.541748 10.854 0.541748H6.89567ZM18.3748 3.31258C18.3748 1.78308 19.6162 0.541748 21.1457 0.541748H25.104C26.6335 0.541748 27.8748 1.78308 27.8748 3.31258V7.27092C27.8748 8.00579 27.5829 8.71056 27.0633 9.23019C26.5436 9.74982 25.8389 10.0417 25.104 10.0417H21.1457C20.4108 10.0417 19.706 9.74982 19.1864 9.23019C18.6668 8.71056 18.3748 8.00579 18.3748 7.27092V3.31258ZM21.1457 2.91675C21.0407 2.91675 20.94 2.95845 20.8658 3.03268C20.7915 3.10692 20.7498 3.2076 20.7498 3.31258V7.27092C20.7498 7.48941 20.9272 7.66675 21.1457 7.66675H25.104C25.209 7.66675 25.3097 7.62504 25.3839 7.55081C25.4581 7.47658 25.4998 7.3759 25.4998 7.27092V3.31258C25.4998 3.2076 25.4581 3.10692 25.3839 3.03268C25.3097 2.95845 25.209 2.91675 25.104 2.91675H21.1457ZM8.08317 22.7084C8.71306 22.7084 9.31715 22.4582 9.76255 22.0128C10.2079 21.5674 10.4582 20.9633 10.4582 20.3334C10.4582 19.7035 10.2079 19.0994 9.76255 18.654C9.31715 18.2086 8.71306 17.9584 8.08317 17.9584C7.45328 17.9584 6.84919 18.2086 6.40379 18.654C5.95839 19.0994 5.70817 19.7035 5.70817 20.3334C5.70817 20.9633 5.95839 21.5674 6.40379 22.0128C6.84919 22.4582 7.45328 22.7084 8.08317 22.7084ZM18.3748 20.3334C18.3748 20.9633 18.1246 21.5674 17.6792 22.0128C17.2338 22.4582 16.6297 22.7084 15.9998 22.7084C15.3699 22.7084 14.7659 22.4582 14.3205 22.0128C13.8751 21.5674 13.6248 20.9633 13.6248 20.3334C13.6248 19.7035 13.8751 19.0994 14.3205 18.654C14.7659 18.2086 15.3699 17.9584 15.9998 17.9584C16.6297 17.9584 17.2338 18.2086 17.6792 18.654C18.1246 19.0994 18.3748 19.7035 18.3748 20.3334ZM23.9165 22.7084C24.5464 22.7084 25.1505 22.4582 25.5959 22.0128C26.0413 21.5674 26.2915 20.9633 26.2915 20.3334C26.2915 19.7035 26.0413 19.0994 25.5959 18.654C25.1505 18.2086 24.5464 17.9584 23.9165 17.9584C23.2866 17.9584 22.6825 18.2086 22.2371 18.654C21.7917 19.0994 21.5415 19.7035 21.5415 20.3334C21.5415 20.9633 21.7917 21.5674 22.2371 22.0128C22.6825 22.4582 23.2866 22.7084 23.9165 22.7084ZM0.166504 20.3334C0.166504 18.4437 0.917171 16.6315 2.25337 15.2953C3.58956 13.9591 5.40184 13.2084 7.2915 13.2084H24.7082C26.5978 13.2084 28.4101 13.9591 29.7463 15.2953C31.0825 16.6315 31.8332 18.4437 31.8332 20.3334C31.8332 22.2231 31.0825 24.0354 29.7463 25.3715C28.4101 26.7077 26.5978 27.4584 24.7082 27.4584H7.2915C5.40184 27.4584 3.58956 26.7077 2.25337 25.3715C0.917171 24.0354 0.166504 22.2231 0.166504 20.3334ZM7.2915 15.5834C6.03173 15.5834 4.82354 16.0839 3.93275 16.9747C3.04195 17.8655 2.5415 19.0736 2.5415 20.3334C2.5415 21.5932 3.04195 22.8014 3.93275 23.6922C4.82354 24.583 6.03173 25.0834 7.2915 25.0834H24.7082C25.9679 25.0834 27.1761 24.583 28.0669 23.6922C28.9577 22.8014 29.4582 21.5932 29.4582 20.3334C29.4582 19.0736 28.9577 17.8655 28.0669 16.9747C27.1761 16.0839 25.9679 15.5834 24.7082 15.5834H7.2915Z" fill="#DA88FF"/>
</svg>
