<svg width="38" height="38" viewBox="0 0 38 38" fill="none" xmlns="http://www.w3.org/2000/svg">
<path d="M19.8947 10.1309H18.1097C17.9464 10.1309 17.8128 10.2645 17.8128 10.4277V20.6439C17.8128 20.7404 17.8574 20.8295 17.9353 20.8852L24.0695 25.3643C24.2031 25.4607 24.3886 25.4348 24.4851 25.3012L25.5464 23.8539C25.6466 23.7166 25.6169 23.5311 25.4833 23.4383L20.1915 19.6123V10.4277C20.1915 10.2645 20.058 10.1309 19.8947 10.1309ZM28.0513 12.9215L33.8701 14.3428C34.0556 14.3873 34.2374 14.2463 34.2374 14.057L34.2671 8.06387C34.2671 7.81524 33.9814 7.67422 33.7884 7.83008L27.94 12.3982C27.8958 12.4324 27.8621 12.4784 27.8429 12.5309C27.8237 12.5834 27.8196 12.6402 27.8313 12.6948C27.8429 12.7495 27.8697 12.7998 27.9086 12.8399C27.9476 12.88 27.997 12.9083 28.0513 12.9215ZM34.2746 24.0951L32.1705 23.3715C32.0971 23.3463 32.0168 23.3509 31.9468 23.3842C31.8767 23.4175 31.8225 23.4769 31.7956 23.5496C31.7251 23.7389 31.6509 23.9244 31.573 24.11C30.9124 25.6723 29.9662 27.0787 28.7564 28.2848C27.5601 29.4848 26.1423 30.4414 24.5816 31.1014C22.9648 31.7849 21.2269 32.1358 19.4716 32.133C17.6978 32.133 15.9796 31.7879 14.3617 31.1014C12.801 30.4414 11.3832 29.4848 10.1869 28.2848C8.9808 27.0787 8.03452 25.6723 7.37026 24.11C6.69048 22.4923 6.3422 20.7547 6.34604 19C6.34604 17.2262 6.69116 15.5043 7.37768 13.8863C8.03823 12.324 8.98452 10.9176 10.1943 9.71153C11.3906 8.51148 12.8084 7.55494 14.3691 6.89493C15.9796 6.2084 17.7015 5.86329 19.4753 5.86329C21.2492 5.86329 22.9673 6.2084 24.5853 6.89493C26.146 7.55494 27.5638 8.51148 28.7601 9.71153C29.1386 10.0938 29.4949 10.4908 29.8214 10.9102L32.0406 9.17344C29.1201 5.44024 24.5742 3.03926 19.4679 3.04297C10.5765 3.04668 3.43666 10.2682 3.52573 19.1633C3.61479 27.9025 10.7212 34.957 19.4753 34.957C26.3591 34.957 32.2224 30.593 34.4564 24.4811C34.5121 24.3252 34.4304 24.1508 34.2746 24.0951Z" fill="#FD9F00"/>
</svg>
