<svg width="32" height="32" viewBox="0 0 32 32" fill="none" xmlns="http://www.w3.org/2000/svg">
<path d="M13.4297 14.6899C12.0452 14.6899 10.6918 14.2794 9.5407 13.5102C8.38955 12.7411 7.49235 11.6478 6.96253 10.3687C6.43272 9.08965 6.2941 7.68218 6.56419 6.32431C6.83429 4.96644 7.50098 3.71916 8.47994 2.7402C9.45891 1.76123 10.7062 1.09454 12.0641 0.824448C13.4219 0.554351 14.8294 0.692974 16.1085 1.22279C17.3876 1.7526 18.4808 2.64981 19.25 3.80095C20.0191 4.9521 20.4297 6.30548 20.4297 7.68994C20.4297 9.54646 19.6922 11.3269 18.3794 12.6397C17.0667 13.9524 15.2862 14.6899 13.4297 14.6899ZM13.4297 2.76994C12.4408 2.76994 11.4741 3.06319 10.6518 3.6126C9.82959 4.162 9.18873 4.9429 8.81029 5.85653C8.43185 6.77016 8.33284 7.77549 8.52576 8.7454C8.71869 9.7153 9.19489 10.6062 9.89416 11.3055C10.5934 12.0047 11.4843 12.4809 12.4542 12.6739C13.4241 12.8668 14.4295 12.7678 15.3431 12.3893C16.2567 12.0109 17.0376 11.37 17.587 10.5478C18.1364 9.72555 18.4297 8.75885 18.4297 7.76995C18.4297 7.11334 18.3004 6.46316 18.0491 5.85653C17.7978 5.2499 17.4295 4.6987 16.9652 4.23441C16.5009 3.77012 15.9497 3.40182 15.3431 3.15055C14.7365 2.89927 14.0863 2.76994 13.4297 2.76994Z" fill="#7BBB96"/>
<path d="M18.9999 15.8999C13.5883 14.6822 7.92688 15.2687 2.87986 17.5699C2.18575 17.9015 1.60012 18.4234 1.19116 19.0749C0.782195 19.7264 0.566731 20.4807 0.569858 21.2499V27.1999C0.569858 27.3312 0.595724 27.4613 0.645978 27.5826C0.696233 27.7039 0.769892 27.8142 0.862751 27.907C0.95561 27.9999 1.06585 28.0735 1.18717 28.1238C1.3085 28.1741 1.43854 28.1999 1.56986 28.1999C1.70118 28.1999 1.83122 28.1741 1.95254 28.1238C2.07387 28.0735 2.18411 27.9999 2.27696 27.907C2.36982 27.8142 2.44348 27.7039 2.49374 27.5826C2.54399 27.4613 2.56986 27.3312 2.56986 27.1999V21.2499C2.56115 20.8606 2.66628 20.4772 2.87234 20.1468C3.0784 19.8164 3.37643 19.5534 3.72986 19.3899C6.77013 17.9861 10.0812 17.2659 13.4299 17.2799C15.3062 17.2775 17.1761 17.4991 18.9999 17.9399V15.8999Z" fill="#7BBB96"/>
<path d="M19.1396 25.4099H25.2796V26.8099H19.1396V25.4099Z" fill="#7BBB96"/>
<path d="M30.17 19.47H25V21.47H29.17V29.84H15V21.47H21.3V21.89C21.3 22.1552 21.4054 22.4096 21.5929 22.5971C21.7804 22.7846 22.0348 22.89 22.3 22.89C22.5652 22.89 22.8196 22.7846 23.0071 22.5971C23.1946 22.4096 23.3 22.1552 23.3 21.89V18C23.3 17.7348 23.1946 17.4804 23.0071 17.2929C22.8196 17.1054 22.5652 17 22.3 17C22.0348 17 21.7804 17.1054 21.5929 17.2929C21.4054 17.4804 21.3 17.7348 21.3 18V19.47H14C13.7348 19.47 13.4804 19.5754 13.2929 19.7629C13.1054 19.9504 13 20.2048 13 20.47V30.84C13 31.1052 13.1054 31.3596 13.2929 31.5471C13.4804 31.7346 13.7348 31.84 14 31.84H30.17C30.4352 31.84 30.6896 31.7346 30.8771 31.5471C31.0646 31.3596 31.17 31.1052 31.17 30.84V20.47C31.17 20.2048 31.0646 19.9504 30.8771 19.7629C30.6896 19.5754 30.4352 19.47 30.17 19.47Z" fill="#7BBB96"/>
</svg>
