<svg width="26" height="24" viewBox="0 0 26 24" fill="none" xmlns="http://www.w3.org/2000/svg">
<path fill-rule="evenodd" clip-rule="evenodd" d="M2.4375 1.84375C2.4375 1.52052 2.3091 1.21052 2.08054 0.981964C1.85198 0.753404 1.54198 0.625 1.21875 0.625C0.895517 0.625 0.585524 0.753404 0.356964 0.981964C0.128404 1.21052 0 1.52052 0 1.84375L0 22.1562C0 22.829 0.546 23.375 1.21875 23.375H24.7812C25.1045 23.375 25.4145 23.2466 25.643 23.018C25.8716 22.7895 26 22.4795 26 22.1562C26 21.833 25.8716 21.523 25.643 21.2945C25.4145 21.0659 25.1045 20.9375 24.7812 20.9375H2.4375V1.84375ZM25.6425 5.955C25.8578 5.72397 25.975 5.41839 25.9694 5.10265C25.9638 4.78691 25.8359 4.48566 25.6126 4.26236C25.3893 4.03907 25.0881 3.91116 24.7723 3.90559C24.4566 3.90002 24.151 4.01722 23.92 4.2325L16.25 11.9025L12.2362 7.88875C12.0077 7.66052 11.698 7.53232 11.375 7.53232C11.052 7.53232 10.7423 7.66052 10.5138 7.88875L5.2325 13.17C5.01722 13.401 4.90002 13.7066 4.90559 14.0223C4.91116 14.3381 5.03907 14.6393 5.26236 14.8626C5.48566 15.0859 5.78691 15.2138 6.10265 15.2194C6.41839 15.225 6.72397 15.1078 6.955 14.8925L11.375 10.4725L15.3888 14.4862C15.6173 14.7145 15.927 14.8427 16.25 14.8427C16.573 14.8427 16.8827 14.7145 17.1112 14.4862L25.6425 5.955Z" fill="#7BBB96"/>
</svg>
