<svg width="42" height="42" viewBox="0 0 42 42" fill="none" xmlns="http://www.w3.org/2000/svg">
<path d="M38.7597 16.8984H28.2597C28.0792 16.8984 27.9315 17.0461 27.9315 17.2266V19.1953C27.9315 19.3758 28.0792 19.5234 28.2597 19.5234H38.7597C38.9401 19.5234 39.0878 19.3758 39.0878 19.1953V17.2266C39.0878 17.0461 38.9401 16.8984 38.7597 16.8984ZM33.2636 22.4766H28.2597C28.0792 22.4766 27.9315 22.6242 27.9315 22.8047V24.7734C27.9315 24.9539 28.0792 25.1016 28.2597 25.1016H33.2636C33.444 25.1016 33.5917 24.9539 33.5917 24.7734V22.8047C33.5917 22.6242 33.444 22.4766 33.2636 22.4766ZM19.5767 13.2275H17.8007C17.5464 13.2275 17.3413 13.4326 17.3413 13.6869V23.8588C17.3413 24.0064 17.411 24.1418 17.53 24.2279L23.6372 28.6822C23.8423 28.8299 24.1294 28.7889 24.2771 28.5838L25.3312 27.1441V27.14C25.4788 26.935 25.4337 26.6479 25.2286 26.5002L20.0319 22.7432V13.6869C20.036 13.4326 19.8269 13.2275 19.5767 13.2275Z" fill="#DA88FF"/>
<path d="M33.0094 27.6403H30.6387C30.409 27.6403 30.1916 27.7592 30.0686 27.9561C29.5477 28.7805 28.9407 29.5434 28.2434 30.2406C27.0416 31.4424 25.643 32.3858 24.0885 33.042C22.4766 33.7229 20.7662 34.0674 19.0026 34.0674C17.2348 34.0674 15.5244 33.7229 13.9166 33.042C12.3621 32.3858 10.9635 31.4424 9.76175 30.2406C8.55999 29.0389 7.61663 27.6403 6.96038 26.0858C6.27952 24.478 5.93499 22.7676 5.93499 20.9998C5.93499 19.2321 6.27952 17.5258 6.96038 15.9139C7.61663 14.3594 8.55999 12.9608 9.76175 11.759C10.9635 10.5573 12.3621 9.6139 13.9166 8.95765C15.5244 8.27679 17.2389 7.93226 19.0026 7.93226C20.7703 7.93226 22.4807 8.27679 24.0885 8.95765C25.643 9.6139 27.0416 10.5573 28.2434 11.759C28.9407 12.4563 29.5477 13.2192 30.0686 14.0436C30.1916 14.2405 30.409 14.3594 30.6387 14.3594H33.0094C33.2924 14.3594 33.4729 14.0641 33.3457 13.8139C30.6715 8.49417 25.2492 5.03655 19.1953 4.96683C10.3319 4.85609 2.96956 12.1117 2.95315 20.967C2.93675 29.8387 10.1268 37.0369 18.9985 37.0369C25.1303 37.0369 30.6428 33.567 33.3457 28.1858C33.4729 27.9356 33.2883 27.6403 33.0094 27.6403Z" fill="#DA88FF"/>
</svg>
