<svg width="38" height="38" viewBox="0 0 38 38" fill="none" xmlns="http://www.w3.org/2000/svg">
<path fill-rule="evenodd" clip-rule="evenodd" d="M7.91659 4.35425C7.69797 4.35425 7.52075 4.53147 7.52075 4.75008V33.2501C7.52075 33.4687 7.69797 33.6459 7.91659 33.6459H30.0833C30.3019 33.6459 30.4791 33.4687 30.4791 33.2501V4.75008C30.4791 4.53147 30.3019 4.35425 30.0833 4.35425H7.91659ZM5.14575 4.75008C5.14575 3.21979 6.3863 1.97925 7.91659 1.97925H30.0833C31.6135 1.97925 32.8541 3.21979 32.8541 4.75008V33.2501C32.8541 34.7804 31.6135 36.0209 30.0833 36.0209H7.91659C6.3863 36.0209 5.14575 34.7804 5.14575 33.2501V4.75008Z" fill="#FD9F00"/>
<path fill-rule="evenodd" clip-rule="evenodd" d="M15.4375 11.0833C15.4375 10.4274 15.9692 9.89575 16.625 9.89575H26.125C26.7808 9.89575 27.3125 10.4274 27.3125 11.0833C27.3125 11.7391 26.7808 12.2708 26.125 12.2708H16.625C15.9692 12.2708 15.4375 11.7391 15.4375 11.0833Z" fill="#FD9F00"/>
<path fill-rule="evenodd" clip-rule="evenodd" d="M15.4375 19C15.4375 18.3442 15.9692 17.8125 16.625 17.8125H26.125C26.7808 17.8125 27.3125 18.3442 27.3125 19C27.3125 19.6558 26.7808 20.1875 26.125 20.1875H16.625C15.9692 20.1875 15.4375 19.6558 15.4375 19Z" fill="#FD9F00"/>
<path fill-rule="evenodd" clip-rule="evenodd" d="M15.4375 26.9167C15.4375 26.2609 15.9692 25.7292 16.625 25.7292H26.125C26.7808 25.7292 27.3125 26.2609 27.3125 26.9167C27.3125 27.5726 26.7808 28.1042 26.125 28.1042H16.625C15.9692 28.1042 15.4375 27.5726 15.4375 26.9167Z" fill="#FD9F00"/>
<path fill-rule="evenodd" clip-rule="evenodd" d="M11.8751 12.6667C12.7496 12.6667 13.4584 11.9578 13.4584 11.0833C13.4584 10.2089 12.7496 9.5 11.8751 9.5C11.0006 9.5 10.2917 10.2089 10.2917 11.0833C10.2917 11.9578 11.0006 12.6667 11.8751 12.6667Z" fill="#FD9F00"/>
<path fill-rule="evenodd" clip-rule="evenodd" d="M11.8751 20.5834C12.7496 20.5834 13.4584 19.8746 13.4584 19.0001C13.4584 18.1256 12.7496 17.4167 11.8751 17.4167C11.0006 17.4167 10.2917 18.1256 10.2917 19.0001C10.2917 19.8746 11.0006 20.5834 11.8751 20.5834Z" fill="#FD9F00"/>
<path fill-rule="evenodd" clip-rule="evenodd" d="M11.8751 28.4999C12.7496 28.4999 13.4584 27.7911 13.4584 26.9166C13.4584 26.0421 12.7496 25.3333 11.8751 25.3333C11.0006 25.3333 10.2917 26.0421 10.2917 26.9166C10.2917 27.7911 11.0006 28.4999 11.8751 28.4999Z" fill="#FD9F00"/>
</svg>
