<svg xmlns="http://www.w3.org/2000/svg" width="42.41" height="39.328" viewBox="0 0 42.41 39.328">
  <path id="map" d="M42.09,2.146A.766.766,0,0,0,41.4,2.04L27.724,6.6l-12.9-3.034a.67.67,0,0,0-.1,0,.784.784,0,0,0-.248,0L.6,6.646A.771.771,0,0,0,0,7.4V40.556a.772.772,0,0,0,.771.771.823.823,0,0,0,.167-.018L14.67,38.258l12.956,2.286a.718.718,0,0,0,.134.012.774.774,0,0,0,.271-.051s.005,0,.008,0l13.88-5.4a.773.773,0,0,0,.492-.719V2.772A.771.771,0,0,0,42.09,2.146ZM1.542,8.016,13.88,5.275V36.852L1.542,39.595Zm13.88-2.729L26.989,8.008V38.865l-11.567-2.04ZM40.869,33.86l-12.338,4.8V7.954L40.869,3.841Z" transform="translate(-0.001 -2)" fill="#39ce50"/>
</svg>
