<svg xmlns="http://www.w3.org/2000/svg" xmlns:xlink="http://www.w3.org/1999/xlink" width="42" height="42" viewBox="0 0 42 42"><defs><path id="2737a" d="M1491.579 506.539l1.969-9.843h2.904l1.968 9.843zm23.189-9.843h-15.807l-.294-1.472a1.23 1.23 0 0 0-1.207-.989h-4.921a1.23 1.23 0 0 0-1.206.99l-.295 1.471h-15.806a1.23 1.23 0 0 0 0 2.46h15.314l-1.477 7.383h-1.452a1.23 1.23 0 0 0 0 2.46h12.297l.006.001H1502.382a1.23 1.23 0 0 0 0-2.461h-1.452l-1.477-7.382h15.315a1.23 1.23 0 0 0 0-2.461z"/><path id="2737b" d="M1482.696 469.546c.678 0 1.23.552 1.23 1.23 0 .679-.552 1.23-1.23 1.23-.679 0-1.23-.551-1.23-1.23 0-.678.551-1.23 1.23-1.23zm0 4.921a3.695 3.695 0 0 0 3.691-3.69 3.695 3.695 0 0 0-3.691-3.692 3.695 3.695 0 0 0-3.691 3.691 3.695 3.695 0 0 0 3.69 3.691z"/><path id="2737c" d="M1479.005 482.67v-2.05c0-1.085.474-2.11 1.301-2.814.839-.713 1.91-1.007 3.019-.827 1.746.284 3.062 1.962 3.062 3.903v1.789c0 1.406.256 2.795.75 4.1h-1.98c-.68 0-1.23.55-1.23 1.23v3.774h-2.461V488c0-.68-.551-1.23-1.23-1.23h-1.98c.493-1.305.749-2.694.749-4.1zm-2.707 6.562h2.707v3.773c0 .68.55 1.23 1.23 1.23h4.922c.68 0 1.23-.55 1.23-1.23v-3.773h2.707a1.23 1.23 0 0 0 1.055-1.864 9.132 9.132 0 0 1-1.301-4.697v-1.789c0-3.134-2.205-5.856-5.128-6.331a6.18 6.18 0 0 0-5.008 1.38 6.145 6.145 0 0 0-2.168 4.688v2.052c0 1.654-.45 3.279-1.301 4.697a1.23 1.23 0 0 0 1.055 1.864z"/><path id="2737d" d="M1507.303 469.464c.679 0 1.23.552 1.23 1.23 0 .679-.551 1.23-1.23 1.23-.678 0-1.23-.551-1.23-1.23 0-.678.552-1.23 1.23-1.23zm0 4.921a3.695 3.695 0 0 0 3.692-3.69 3.695 3.695 0 0 0-3.692-3.692 3.695 3.695 0 0 0-3.69 3.691 3.695 3.695 0 0 0 3.69 3.691z"/><path id="2737e" d="M1503.612 480.537c0-1.084.475-2.11 1.302-2.813.838-.713 1.91-1.007 3.019-.827 1.745.284 3.061 1.962 3.061 3.903v1.688l-2.1 2.1c-.23.231-.36.544-.36.87v6.317h-2.461v-6.316c0-.327-.13-.64-.36-.87l-2.1-2.1zm0 5.431v7.037c0 .68.551 1.23 1.23 1.23h4.922c.68 0 1.23-.55 1.23-1.23v-7.037l2.1-2.1c.232-.23.361-.544.361-.87V480.8c0-3.134-2.204-5.856-5.127-6.331a6.18 6.18 0 0 0-5.008 1.38 6.145 6.145 0 0 0-2.169 4.688v2.46c0 .327.13.64.36.87z"/></defs><g><g transform="translate(-1474 -467)"><g><use fill="#ff85c0" xlink:href="#2737a"/></g><g><use fill="#ff85c0" xlink:href="#2737b"/></g><g><use fill="#ff85c0" xlink:href="#2737c"/></g><g><use fill="#ff85c0" xlink:href="#2737d"/></g><g><use fill="#ff85c0" xlink:href="#2737e"/></g></g></g></svg>