<svg xmlns="http://www.w3.org/2000/svg" width="41.918" height="41.916" viewBox="0 0 41.918 41.916">
  <g id="customer" transform="translate(0.003 -0.001)">
    <path id="Path_333" data-name="Path 333" d="M167.6,13.2A6.6,6.6,0,1,0,161,6.6,6.607,6.607,0,0,0,167.6,13.2Zm0-11.862A5.262,5.262,0,1,1,162.334,6.6,5.268,5.268,0,0,1,167.6,1.338Z" transform="translate(-146.639)" fill="#a2a2a2"/>
    <path id="Path_334" data-name="Path 334" d="M118.379,164.347a10.094,10.094,0,0,1,10.059,9.412H112.98a.669.669,0,1,0,0,1.338h16.149a.669.669,0,0,0,.669-.669,11.419,11.419,0,0,0-22.838,0,.669.669,0,0,0,.669.669H110.3a.669.669,0,1,0,0-1.338H108.32a10.094,10.094,0,0,1,10.059-9.412Z" transform="translate(-97.422 -148.471)" fill="#a2a2a2"/>
    <path id="Path_335" data-name="Path 335" d="M12.521,334.053l-3.669-.616-1.72-3.3a.669.669,0,0,0-1.186,0l-1.72,3.3-3.669.616a.669.669,0,0,0-.367,1.128L2.8,337.836l-.548,3.68a.669.669,0,0,0,.96.7l3.33-1.659,3.33,1.659a.669.669,0,0,0,.96-.7l-.548-3.68,2.607-2.655a.669.669,0,0,0-.366-1.128Zm-3.428,3.084a.669.669,0,0,0-.184.567l.408,2.74-2.48-1.235a.669.669,0,0,0-.6,0l-2.48,1.235.408-2.74a.669.669,0,0,0-.184-.567L2.044,335.16l2.732-.459a.669.669,0,0,0,.482-.351l1.28-2.457,1.28,2.457a.669.669,0,0,0,.482.351l2.732.459-1.941,1.977Z" transform="translate(0 -300.367)" fill="#a2a2a2"/>
    <path id="Path_336" data-name="Path 336" d="M174.188,334.053l-3.669-.616-1.72-3.3a.669.669,0,0,0-1.186,0l-1.72,3.3-3.669.616a.669.669,0,0,0-.367,1.128l2.607,2.655-.548,3.68a.669.669,0,0,0,.96.7l3.33-1.659,3.33,1.659a.669.669,0,0,0,.96-.7l-.548-3.68,2.607-2.655a.669.669,0,0,0-.367-1.128Zm-3.428,3.084a.669.669,0,0,0-.184.567l.408,2.74-2.48-1.235a.669.669,0,0,0-.6,0l-2.48,1.235.408-2.74a.669.669,0,0,0-.184-.567l-1.941-1.977,2.732-.459a.669.669,0,0,0,.482-.351l1.28-2.457,1.28,2.457a.669.669,0,0,0,.482.351l2.732.459Z" transform="translate(-147.249 -300.367)" fill="#a2a2a2"/>
    <path id="Path_337" data-name="Path 337" d="M336.379,334.506a.669.669,0,0,0-.525-.453l-3.669-.616-1.72-3.3a.669.669,0,0,0-1.186,0l-1.72,3.3-3.669.616a.669.669,0,0,0-.367,1.128l2.607,2.655-.548,3.68a.669.669,0,0,0,.96.7l3.331-1.659,3.33,1.659a.669.669,0,0,0,.96-.7l-.548-3.68,2.607-2.655A.668.668,0,0,0,336.379,334.506Zm-3.953,2.631a.669.669,0,0,0-.184.567l.408,2.74-2.48-1.235a.669.669,0,0,0-.6,0l-2.48,1.235.408-2.74a.669.669,0,0,0-.184-.567l-1.941-1.977,2.732-.459a.669.669,0,0,0,.482-.351l1.28-2.457,1.28,2.457a.669.669,0,0,0,.483.351l2.732.459Z" transform="translate(-294.497 -300.367)" fill="#a2a2a2"/>
    <path id="Path_338" data-name="Path 338" d="M209.952,86.02a3.033,3.033,0,0,0,2.288-1.045.669.669,0,0,0-1.01-.878,1.69,1.69,0,0,1-2.558,0,.669.669,0,0,0-1.01.878A3.033,3.033,0,0,0,209.952,86.02Z" transform="translate(-188.995 -76.387)" fill="#a2a2a2"/>
  </g>
</svg>
