<svg xmlns="http://www.w3.org/2000/svg" xmlns:xlink="http://www.w3.org/1999/xlink" width="42" height="42" viewBox="0 0 42 42"><defs><path id="fpgha" d="M1084.233 488.291h8.476v8.476c0 4.673-3.802 8.475-8.476 8.475-4.673 0-8.475-3.802-8.475-8.475 0-4.674 3.802-8.476 8.475-8.476zm13.318 0v4.843h-2.421v-4.843zm14.69 12.108v2.421h-18.952c.501-.747.912-1.56 1.218-2.421zm-28.008 7.264c2.59 0 4.97-.908 6.841-2.421h23.59v-12.108h-2.422v4.843h-17.18c.045-.397.068-.801.068-1.21v-1.211h4.843v-9.686h-15.74c-6.008 0-10.896 4.888-10.896 10.897 0 6.008 4.888 10.896 10.896 10.896z"/><path id="fpghb" d="M1087.866 496.767c0 .56-.128 1.09-.355 1.565l-4.843-4.843a3.61 3.61 0 0 1 1.565-.355 3.636 3.636 0 0 1 3.633 3.633zm-7.265 0c0-.56.128-1.091.355-1.565l4.843 4.842a3.61 3.61 0 0 1-1.566.355 3.636 3.636 0 0 1-3.632-3.632zm3.632 6.053a6.06 6.06 0 0 0 6.054-6.053 6.06 6.06 0 0 0-6.054-6.054 6.06 6.06 0 0 0-6.053 6.054 6.06 6.06 0 0 0 6.053 6.053z"/><path id="fpghc" d="M1078.18 481.027h-2.422v-12.269h2.422zm4.843-9.847v5.004h2.421v-5.004h2.422v2.583h2.421v-2.583h2.422v5.004h2.421v-5.004h2.422v2.583h2.421v-2.583h2.421v5.004h2.422v-5.004h2.421v2.583h2.422v-2.583h2.583v7.426h-31.64v-7.426zm-2.422 9.847h34.062v-12.269h-34.062v-2.421h-7.264v17.112h7.264z"/></defs><g><g transform="translate(-1073 -466)"><g><use fill="#b37feb" xlink:href="#fpgha"/></g><g><use fill="#b37feb" xlink:href="#fpghb"/></g><g><use fill="#b37feb" xlink:href="#fpghc"/></g></g></g></svg>