<svg width="39" height="37" viewBox="0 0 39 37" fill="none" xmlns="http://www.w3.org/2000/svg">
<path d="M15.1814 6.83163C16.7672 2.87827 17.5601 0.901593 18.8483 0.627635C19.187 0.5556 19.5371 0.5556 19.8758 0.627635C21.164 0.901593 21.9569 2.87827 23.5427 6.83163C24.4445 9.07983 24.8954 10.2039 25.7391 10.9685C25.9757 11.1829 26.2326 11.3739 26.5061 11.5388C27.4813 12.1265 28.6986 12.2356 31.1333 12.4536C35.2548 12.8227 37.3156 13.0073 37.9449 14.1823C38.0752 14.4256 38.1638 14.6891 38.207 14.9617C38.4156 16.2782 36.9007 17.6565 33.8708 20.4131L33.0294 21.1786C31.6129 22.4673 30.9046 23.1117 30.4949 23.9159C30.2492 24.3983 30.0844 24.9178 30.0072 25.4536C29.8785 26.3469 30.0859 27.2817 30.5007 29.1513L30.6489 29.8193C31.3928 33.1721 31.7647 34.8485 31.3004 35.6725C30.8834 36.4127 30.1152 36.8866 29.2665 36.9271C28.3218 36.9722 26.9906 35.8875 24.3282 33.718C22.5742 32.2887 21.6971 31.5741 20.7235 31.2949C19.8338 31.0398 18.8903 31.0398 18.0005 31.2949C17.0269 31.5741 16.1499 32.2887 14.3958 33.718C11.7334 35.8875 10.4023 36.9722 9.45751 36.9271C8.60889 36.8866 7.84067 36.4127 7.42361 35.6725C6.95931 34.8485 7.33125 33.1721 8.07514 29.8193L8.22335 29.1513C8.63816 27.2817 8.84556 26.3469 8.71686 25.4536C8.63965 24.9178 8.47488 24.3983 8.22913 23.9159C7.81946 23.1117 7.11119 22.4673 5.69465 21.1786L4.85326 20.4131C1.82336 17.6565 0.308402 16.2782 0.517034 14.9617C0.560243 14.6891 0.648857 14.4256 0.779191 14.1823C1.40849 13.0073 3.46924 12.8227 7.59072 12.4536C10.0254 12.2356 11.2427 12.1265 12.2179 11.5388C12.4914 11.3739 12.7483 11.1829 12.985 10.9685C13.8287 10.2039 14.2796 9.07983 15.1814 6.83163Z" fill="url(#paint0_linear_192_520)"/>
<defs>
<linearGradient id="paint0_linear_192_520" x1="19.362" y1="0.573608" x2="19.362" y2="36.9284" gradientUnits="userSpaceOnUse">
<stop stop-color="#FCBC18"/>
<stop offset="1" stop-color="#FF6F1E"/>
</linearGradient>
</defs>
</svg>
