<svg xmlns="http://www.w3.org/2000/svg" xmlns:xlink="http://www.w3.org/1999/xlink" width="31" height="43" viewBox="0 0 31 43"><defs><path id="dhf1a" d="M681.928 476.508l-2.838-4.02 4.551-3.792v6.955zm10.816-6.11a3.315 3.315 0 0 1-3.223-2.557h6.446a3.315 3.315 0 0 1-3.223 2.558zm10.816 6.11l-1.713-.857v-6.955l4.55 3.792zm-13.813 12.03h-4.601v-20.697h2.843a4.822 4.822 0 0 0 4.755 4.062 4.822 4.822 0 0 0 4.755-4.062h2.843v11.52a.752.752 0 0 0 1.505 0v-2.027l1.619.81a.75.75 0 0 0 .95-.24l3.611-5.115a.752.752 0 0 0-.133-1.012l-6.315-5.263a.749.749 0 0 0-.485-.177h-16.7a.749.749 0 0 0-.485.177l-6.315 5.263a.752.752 0 0 0-.133 1.012l3.61 5.115a.752.752 0 0 0 .952.24l1.618-.81v11.957c0 .416.337.752.753.752h5.353a.752.752 0 1 0 0-1.504z"/><path id="dhf1b" d="M702.21 507.495l-1.023-18.395a.752.752 0 0 0-.751-.71h-1.416c-.4 0-.73.311-.751.71l-1.023 18.395h-4.329V485.68h13.621v21.815zm-6.92-25.003v1.684h-2.373v-1.684zm1.504 1.684v-1.684h5.867v1.684zm9.744 0h-2.372v-1.684h2.372zm.752-3.188h-15.125a.752.752 0 0 0-.752.752v26.508c0 .415.337.752.752.752h5.793c.399 0 .729-.312.75-.71l1.02-18.33 1.019 18.33c.022.398.351.71.75.71h5.793a.752.752 0 0 0 .753-.752V481.74a.752.752 0 0 0-.753-.752z"/></defs><g><g transform="translate(-677 -466)"><g><use fill="#69c0ff" xlink:href="#dhf1a"/></g><g><use fill="#69c0ff" xlink:href="#dhf1b"/></g></g></g></svg>