<svg xmlns="http://www.w3.org/2000/svg" xmlns:xlink="http://www.w3.org/1999/xlink" width="40" height="40" viewBox="0 0 40 40"><defs><path id="viyia" d="M1103.59 152.355a.761.761 0 1 0-1.075-1.077.761.761 0 0 0 1.075 1.077z"/><path id="viyib" d="M1078.021 137.097l6.128 6.128-1.617 1.616a.762.762 0 0 0 1.078 1.077l1.616-1.616 3.232 3.232-1.616 1.616a.762.762 0 0 0 1.077 1.078l1.617-1.616 3.231 3.232-1.616 1.616a.762.762 0 1 0 1.078 1.077l1.616-1.616 3.232 3.232-1.616 1.616a.762.762 0 1 0 1.077 1.078l1.616-1.616 3.232 3.231-1.616 1.617a.762.762 0 1 0 1.078 1.077l1.615-1.616 3.232 3.232-1.615 1.616a.762.762 0 0 0 1.077 1.078l1.616-1.617 6.127 6.127h-34.879zm-.762 36.403h37.48a.762.762 0 0 0 .54-1.3l-37.481-37.48a.761.761 0 0 0-1.3.538v37.48c0 .421.34.762.761.762z"/><path id="viyic" d="M1084.573 165.425v-12.712l12.711 12.712zm-.224-15.09a.762.762 0 0 0-1.3.54v15.312c0 .42.341.762.762.762h15.312a.762.762 0 0 0 .54-1.3z"/><path id="viyid" d="M1100.358 150.2a.762.762 0 0 0 1.078-1.077l-3.233-3.232a.762.762 0 1 0-1.077 1.077z"/><path id="viyie" d="M1092.255 137.997l-3.07 3.07-1.535-4.604zm1.159.997l15.458 15.458-3.232 3.232-15.458-15.458zm17.613 17.613l-3.233 3.232-1.077-1.078 3.232-3.231zm2.727 2.728a.763.763 0 0 1 0 1.077l-2.154 2.155a.762.762 0 0 1-1.078 0l-1.65-1.65 3.232-3.233zm-4.309 4.309a2.284 2.284 0 0 0 3.232 0l2.155-2.154c.89-.89.89-2.34 0-3.233l-21.384-21.383a.76.76 0 0 0-.297-.184l-6.464-2.155a.762.762 0 0 0-.964.964l2.154 6.464c.038.112.1.214.184.298z"/></defs><g><g transform="translate(-1076 -134)"><g><use fill="#ff9c6e" xlink:href="#viyia"/></g><g><use fill="#ff9c6e" xlink:href="#viyib"/></g><g><use fill="#ff9c6e" xlink:href="#viyic"/></g><g><use fill="#ff9c6e" xlink:href="#viyid"/></g><g><use fill="#ff9c6e" xlink:href="#viyie"/></g></g></g></svg>