<svg xmlns="http://www.w3.org/2000/svg" xmlns:xlink="http://www.w3.org/1999/xlink" width="45" height="46" viewBox="0 0 45 46"><defs><path id="zy2ea" d="M1503.058 159.056a2.06 2.06 0 0 1-2.057-2.057 2.057 2.057 0 1 1 2.057 2.057zm-6.233.513v-5.14l2.579 1.482a3.797 3.797 0 0 0 0 2.176zm18.864 3.68l-3.202-1.841 3.172-1.663a.878.878 0 0 0-.816-1.556l-4.16 2.18-3.972-2.283a3.801 3.801 0 0 0 0-2.174l3.972-2.284 4.16 2.182a.879.879 0 0 0 .816-1.556l-3.171-1.663 3.2-1.84a.879.879 0 0 0-.875-1.523l-3.21 1.845.14-3.571a.878.878 0 0 0-1.756-.069l-.183 4.674-3.971 2.283a3.81 3.81 0 0 0-1.897-1.1v-4.552l3.972-2.493a.878.878 0 0 0-.934-1.487l-3.038 1.906v-3.684a.878.878 0 1 0-1.756 0v3.685l-3.04-1.907a.878.878 0 1 0-.934 1.487l3.974 2.493v4.553a3.81 3.81 0 0 0-1.898 1.099l-3.457-1.989v-9.421a.878.878 0 0 0-.879-.879c-6.604 0-12.358 4.604-13.991 11.195a.878.878 0 1 0 1.705.423c1.366-5.51 5.987-9.444 11.408-9.83v26.222c-5.422-.386-10.043-4.32-11.408-9.832a.879.879 0 0 0-1.705.422c1.633 6.593 7.387 11.197 13.991 11.197a.878.878 0 0 0 .879-.878v-9.424l3.456-1.987c.504.535 1.16.925 1.899 1.1v4.55l-3.974 2.496a.878.878 0 1 0 .934 1.487l3.04-1.908v3.686a.878.878 0 0 0 1.756 0v-3.686l3.038 1.908a.876.876 0 0 0 1.211-.276.878.878 0 0 0-.277-1.211l-3.971-2.495v-4.55a3.812 3.812 0 0 0 1.897-1.102l3.97 2.284.183 4.672a.878.878 0 0 0 .877.844h.035a.878.878 0 0 0 .844-.913l-.14-3.57 3.21 1.847a.875.875 0 0 0 1.199-.324.878.878 0 0 0-.323-1.199z"/><path id="zy2eb" d="M1482.384 157.878a.879.879 0 1 0-.004-1.758.879.879 0 0 0 .004 1.758z"/><path id="zy2ec" d="M1476.633 142.722l3.947 3.147a.877.877 0 0 0 1.095-1.374l-3.946-3.146a.878.878 0 1 0-1.096 1.373z"/><path id="zy2ed" d="M1486.927 140.298a.879.879 0 1 0 1.583-.762l-2.188-4.542a.878.878 0 0 0-1.582.762z"/><path id="zy2ee" d="M1480.58 168.13l-3.947 3.148a.879.879 0 0 0 1.096 1.373l3.947-3.147a.879.879 0 0 0-1.096-1.374z"/><path id="zy2ef" d="M1488.1 173.289a.878.878 0 0 0-1.173.41l-2.187 4.545a.878.878 0 1 0 1.583.762l2.187-4.545a.878.878 0 0 0-.41-1.172z"/><path id="zy2eg" d="M1472.35 152.515l4.917 1.122a.876.876 0 0 0 1.052-.661.878.878 0 0 0-.661-1.052l-4.917-1.122a.879.879 0 0 0-.39 1.713z"/><path id="zy2eh" d="M1478.319 161.022a.879.879 0 0 0-1.052-.661l-4.917 1.124a.878.878 0 1 0 .392 1.713l4.916-1.124a.879.879 0 0 0 .66-1.052z"/></defs><g><g transform="translate(-1471 -134)"><g><use fill="#95de64" xlink:href="#zy2ea"/></g><g><use fill="#95de64" xlink:href="#zy2eb"/></g><g><use fill="#95de64" xlink:href="#zy2ec"/></g><g><use fill="#95de64" xlink:href="#zy2ed"/></g><g><use fill="#95de64" xlink:href="#zy2ee"/></g><g><use fill="#95de64" xlink:href="#zy2ef"/></g><g><use fill="#95de64" xlink:href="#zy2eg"/></g><g><use fill="#95de64" xlink:href="#zy2eh"/></g></g></g></svg>