<svg xmlns="http://www.w3.org/2000/svg" xmlns:xlink="http://www.w3.org/1999/xlink" width="46" height="46" viewBox="0 0 46 46"><defs><path id="ooa6a" d="M701.288 155.203a.898.898 0 1 1 1.797 0 .898.898 0 0 1-1.797 0z"/><path id="ooa6b" d="M702.34 159.053a.899.899 0 0 0-1.02.757c-.246 1.658-1.647 3.033-3.75 3.679-2.246.69-5.364.458-7.267-1.614a.899.899 0 0 0-1.323 1.216c1.1 1.2 2.597 2.016 4.325 2.364.61.122 1.244.183 1.881.183.985 0 1.979-.145 2.912-.432 2.781-.854 4.65-2.772 5-5.133a.898.898 0 0 0-.758-1.02z"/><path id="ooa6c" d="M687.903 155.955a2.692 2.692 0 0 1-1.343 2.165c-.85.491-3.769.557-6.166.448 1.103-2.13 2.62-4.624 3.47-5.116a2.686 2.686 0 0 1 2.598-.054c.453.236.827.595 1.084 1.04.267.463.39.987.357 1.517zm27.95 3.659c-.128 8.94-8.137 18.59-20.853 18.59-5.903 0-11.59-2.508-15.602-6.88-4.085-4.453-6.044-10.286-5.516-16.425.907-10.533 10.17-19.102 20.647-19.102h.04c.86.002 1.512.331 1.789.904.254.527.144 1.174-.297 1.733-1.619 2.052-2.025 4.577-1.11 6.706a77.08 77.08 0 0 0-1.419.936c-2.857 1.927-5.27 3.845-6.874 5.459a4.468 4.468 0 0 0-3.692.361c-1.867 1.078-4.318 6.103-4.79 7.1a.898.898 0 0 0 .739 1.28c.497.04 1.907.141 3.476.141 1.905 0 4.044-.15 5.067-.74a4.482 4.482 0 0 0 2.143-2.939c2.203-.578 5.082-1.71 8.2-3.228a86.317 86.317 0 0 0 5.34-2.844 90.272 90.272 0 0 0 2.687-1.616l.016.001c7.488.215 10.08 5.597 10.01 10.563zm-19.518-7.394c-2.537 1.204-4.865 2.12-6.724 2.653a4.5 4.5 0 0 0-1.356-2.39c1.391-1.343 3.35-2.899 5.657-4.49a11.715 11.715 0 0 1 2.423 4.227zm.268-6.002c.95-.6 1.941-1.198 2.944-1.776 3.889-2.246 7.761-4.095 10.904-5.208 3.46-1.225 4.877-1.145 5.207-.987-.029.21-.288 1.14-2.559 3.23-1.896 1.746-4.664 3.8-7.795 5.781a88.03 88.03 0 0 1-7.342 4.166 13.51 13.51 0 0 0-2.548-4.442c.39-.256.787-.511 1.189-.764zm18.225 4.89c-1.633-1.894-3.887-3.121-6.6-3.614 2.597-1.753 4.838-3.498 6.435-5.02 2.436-2.32 3.252-3.951 2.57-5.132-.758-1.314-2.949-1.305-6.894.03-3.333 1.127-7.485 3.085-11.69 5.513-.727.42-1.447.85-2.151 1.282-.522-1.475-.178-3.16.974-4.62.863-1.095 1.056-2.485.503-3.628-.58-1.198-1.851-1.916-3.404-1.919h-.042c-5.481 0-10.842 2.163-15.096 6.09-4.258 3.931-6.866 9.136-7.341 14.655-.572 6.647 1.552 12.966 5.982 17.793C682.426 177.28 688.594 180 695 180c3.448 0 6.685-.63 9.62-1.875a21.65 21.65 0 0 0 7.086-4.83 21.341 21.341 0 0 0 4.383-6.556c.988-2.317 1.528-4.772 1.561-7.1.049-3.385-.927-6.335-2.822-8.532z"/><path id="ooa6d" d="M687.811 144.947c-.99 0-1.797-.807-1.797-1.797 0-.991.806-1.797 1.797-1.797.991 0 1.797.806 1.797 1.797 0 .99-.806 1.797-1.797 1.797zm0-5.391a3.598 3.598 0 0 0-3.594 3.594 3.598 3.598 0 0 0 3.594 3.593 3.598 3.598 0 0 0 3.594-3.593 3.598 3.598 0 0 0-3.594-3.594z"/><path id="ooa6e" d="M683.319 169.088c-.99 0-1.797-.806-1.797-1.796 0-.991.806-1.797 1.797-1.797.99 0 1.797.806 1.797 1.797 0 .99-.806 1.796-1.797 1.796zm0-5.39a3.598 3.598 0 0 0-3.594 3.594 3.598 3.598 0 0 0 3.594 3.593 3.598 3.598 0 0 0 3.594-3.593 3.598 3.598 0 0 0-3.594-3.594z"/><path id="ooa6f" d="M692.303 174.48c-.99 0-1.796-.807-1.796-1.798 0-.99.806-1.797 1.796-1.797.991 0 1.797.806 1.797 1.797 0 .991-.806 1.797-1.797 1.797zm0-5.392a3.598 3.598 0 0 0-3.593 3.594 3.598 3.598 0 0 0 3.593 3.594 3.598 3.598 0 0 0 3.594-3.594 3.598 3.598 0 0 0-3.594-3.594z"/><path id="ooa6g" d="M703.085 172.682c-.991 0-1.797-.806-1.797-1.797 0-.99.806-1.797 1.797-1.797.99 0 1.797.807 1.797 1.797 0 .991-.807 1.797-1.797 1.797zm0-5.39a3.598 3.598 0 0 0-3.594 3.593 3.598 3.598 0 0 0 3.594 3.594 3.598 3.598 0 0 0 3.593-3.594 3.598 3.598 0 0 0-3.593-3.593z"/><path id="ooa6h" d="M710.272 163.698c-.99 0-1.797-.806-1.797-1.797 0-.99.806-1.797 1.797-1.797.991 0 1.797.806 1.797 1.797 0 .99-.806 1.797-1.797 1.797zm0-5.39a3.598 3.598 0 0 0-3.594 3.593 3.598 3.598 0 0 0 3.594 3.594 3.598 3.598 0 0 0 3.594-3.594 3.598 3.598 0 0 0-3.594-3.594z"/></defs><g><g transform="translate(-672 -134)"><g><g><g><use fill="#ff7875" xlink:href="#ooa6a"/></g></g></g><g><g><g><use fill="#ff7875" xlink:href="#ooa6b"/></g></g></g><g><g><g><use fill="#ff7875" xlink:href="#ooa6c"/></g></g></g><g><g><g><use fill="#ff7875" xlink:href="#ooa6d"/></g></g></g><g><g><g><use fill="#ff7875" xlink:href="#ooa6e"/></g></g></g><g><g><g><use fill="#ff7875" xlink:href="#ooa6f"/></g></g></g><g><g><g><use fill="#ff7875" xlink:href="#ooa6g"/></g></g></g><g><g><g><use fill="#ff7875" xlink:href="#ooa6h"/></g></g></g></g></g></svg>