<?xml version="1.0" encoding="utf-8"?>
<!-- Generator: Adobe Illustrator 24.3.0, SVG Export Plug-In . SVG Version: 6.00 Build 0)  -->
<svg version="1.1" id="Capa_1" xmlns="http://www.w3.org/2000/svg" xmlns:xlink="http://www.w3.org/1999/xlink" x="0px" y="0px"
	 viewBox="0 0 372.3 488.8" style="enable-background:new 0 0 372.3 488.8;" xml:space="preserve">
<style type="text/css">
	.st0{fill:#FFFFFF;}
	.st1{fill:#fd9c45;}
</style>
<g>
	<g>
		<g>
			<path class="st0" d="M186.2,0C83.5,0,0,83.5,0,186.2c0,40.6,12.8,79.2,37.1,111.6L174.7,483c0.3,0.4,0.9,0.6,1.3,1
				c6.9,7.4,16.8,5.5,21.7-1c39.6-52.8,112.2-151.5,140.1-188.8c0,0,0,0,0,0l0.2-0.2c22.5-31.6,34.4-68.9,34.4-107.8
				C372.3,83.5,288.8,0,186.2,0z"/>
		</g>
	</g>
	<g>
		<g>
			<path class="st1" d="M186.2,14.9C91,14.9,13.6,92.3,13.6,187.4c0,37.6,11.9,73.4,34.4,103.4l127.5,171.7c0.3,0.4,0.8,0.6,1.2,0.9
				c6.4,6.8,15.6,5.1,20.1-0.9c36.7-49,104-140.5,129.9-175c0,0,0,0,0,0l0.2-0.2c20.8-29.3,31.9-63.8,31.9-99.9
				C358.7,92.3,281.3,14.9,186.2,14.9z M186.2,280.5c-51.2,0-93.1-41.9-93.1-93.1s41.9-93.1,93.1-93.1s93.1,41.9,93.1,93.1
				S237.4,280.5,186.2,280.5z"/>
		</g>
	</g>
</g>
</svg>
