<svg xmlns="http://www.w3.org/2000/svg" width="157.582" height="31.058" viewBox="0 0 157.582 31.058">
    <defs>
        <style>
            .cls-1{fill:#131b2e}.cls-2{fill:#fff}
        </style>
    </defs>
    <g id="oks" transform="translate(-564 -528)">
        <g id="oks-2" data-name="oks" transform="translate(564 528)">
            <g id="Group-65">
                <ellipse id="Oval" cx="15.534" cy="15.529" class="cls-1" rx="15.534" ry="15.529"/>
                <path id="Combined-Shape" d="M10.476 9.706h.124a1.64 1.64 0 0 1 1.661 1.626v8.859a1.64 1.64 0 0 1-1.661 1.627h-.126v-1.142h.126a.492.492 0 0 0 .5-.484v-8.86a.5.5 0 0 0-.5-.484h-.126zm-1.039 1.141a.5.5 0 0 0-.5.484v8.859a.484.484 0 0 0 .5.484h.136v1.142h-.136a1.66 1.66 0 0 1-1.67-1.627v-8.857a1.66 1.66 0 0 1 1.67-1.626h.136v1.141zm7.156 5.853l1.378 5.122h-1.2L15.389 16.7zm-3-2.821V9.706h1.165v4.169zm1.165 1.939v6h-1.166v-7.06h1.6l1.592-5.052h1.2l-1.825 5.4.2.71zm7.224.485a2.765 2.765 0 0 1 .6 1.832v2.059a1.651 1.651 0 0 1-1.66 1.627h-.815a1.639 1.639 0 0 1-1.66-1.627v-1.855h1.165v1.852a.491.491 0 0 0 .5.484h.815a.492.492 0 0 0 .5-.484v-2.059a1.665 1.665 0 0 0-.379-1.159l-.068-.087V15.1zm-1.913-.485l-1.039-1.247a2.8 2.8 0 0 1-.583-1.832v-1.4a1.662 1.662 0 0 1 1.66-1.626h.815a1.651 1.651 0 0 1 1.66 1.626v1.35h-1.164v-1.35a.5.5 0 0 0-.5-.484H20.1a.5.5 0 0 0-.5.484v1.4a1.731 1.731 0 0 0 .369 1.159l.087.1z" class="cls-2"/>
            </g>
            <path id="Разработка-сайта-OKS" d="M43.815 26.491a4.3 4.3 0 0 1-1.344-.987 4.5 4.5 0 0 1-.866-1.4 4.4 4.4 0 0 1-.309-1.622 4.372 4.372 0 0 1 2.579-3.982 4.112 4.112 0 0 1 1.719-.357 4 4 0 0 1 1.744.375 4.251 4.251 0 0 1 1.344.993 4.478 4.478 0 0 1 .86 1.4 4.42 4.42 0 0 1 .3 1.6 4.291 4.291 0 0 1-.321 1.635 4.35 4.35 0 0 1-2.243 2.35 8.211 8.211 0 0 1-3.463-.009zm-.5-3.984a3.216 3.216 0 0 0 .145.963 2.574 2.574 0 0 0 .43.829 2.116 2.116 0 0 0 .708.581 2.088 2.088 0 0 0 .969.218 2.05 2.05 0 0 0 .993-.23 2.152 2.152 0 0 0 .7-.6 2.618 2.618 0 0 0 .418-.835 3.3 3.3 0 0 0 .139-.95 3.216 3.216 0 0 0-.145-.963 2.441 2.441 0 0 0-.436-.823 2.164 2.164 0 0 0-.708-.569 2.1 2.1 0 0 0-.963-.212 2.058 2.058 0 0 0-.987.224 2.2 2.2 0 0 0-.7.587 2.483 2.483 0 0 0-.424.829 3.3 3.3 0 0 0-.135.951zM51 26.793V18.2h1.986v3.7l3.143-3.7h2.228l-3.221 3.838 3.439 4.762h-2.264l-2.434-3.47-.9.932v2.531zm13.379-6.078a1.21 1.21 0 0 0-.254-.182 4.79 4.79 0 0 0-.545-.278 5.274 5.274 0 0 0-.719-.255 2.851 2.851 0 0 0-.775-.109q-1.065 0-1.065.714a.567.567 0 0 0 .115.363 1.016 1.016 0 0 0 .339.26 3.133 3.133 0 0 0 .563.212q.339.1.787.218a10.3 10.3 0 0 1 1.114.369 2.99 2.99 0 0 1 .842.5 2.011 2.011 0 0 1 .533.72 2.5 2.5 0 0 1 .188 1.017 2.549 2.549 0 0 1-.272 1.229 2.3 2.3 0 0 1-.72.811 3.043 3.043 0 0 1-1.029.448 5.129 5.129 0 0 1-1.2.139 6.687 6.687 0 0 1-.969-.073 7.012 7.012 0 0 1-.969-.212 7.7 7.7 0 0 1-.914-.333 5.107 5.107 0 0 1-.817-.448l.872-1.731a1.7 1.7 0 0 0 .315.23 4.717 4.717 0 0 0 .66.339 6.739 6.739 0 0 0 .878.3 3.681 3.681 0 0 0 .981.133q1.053 0 1.053-.642a.541.541 0 0 0-.157-.4 1.482 1.482 0 0 0-.436-.285 4.733 4.733 0 0 0-.66-.236q-.381-.109-.829-.242a7.174 7.174 0 0 1-1.029-.391 2.717 2.717 0 0 1-.72-.49 1.782 1.782 0 0 1-.424-.642 2.362 2.362 0 0 1-.139-.848 2.7 2.7 0 0 1 .254-1.2 2.588 2.588 0 0 1 .69-.878 3 3 0 0 1 1.011-.539 4.017 4.017 0 0 1 1.217-.182 4.623 4.623 0 0 1 .884.085 6.645 6.645 0 0 1 .835.218 5.967 5.967 0 0 1 .745.3q.345.17.636.339zm11.66-.775h-2.62v6.853h-1.985V19.94h-2.628V18.2h7.228zm7.011 5.11v1.744H77V18.2h5.933v1.74h-3.944v1.671h3.39v1.61h-3.39v1.829zm.714-2.627a4.339 4.339 0 0 1 .291-1.544A4.211 4.211 0 0 1 84.9 19.5a4.3 4.3 0 0 1 1.356-.981 4.224 4.224 0 0 1 1.816-.375 4.087 4.087 0 0 1 2.1.521 3.367 3.367 0 0 1 1.328 1.36l-1.529 1.065a1.772 1.772 0 0 0-.369-.563 2.015 2.015 0 0 0-1.035-.557 2.834 2.834 0 0 0-.545-.054 2.05 2.05 0 0 0-.993.23 2.185 2.185 0 0 0-.7.593 2.466 2.466 0 0 0-.412.823 3.336 3.336 0 0 0-.133.932 3.082 3.082 0 0 0 .157.981 2.612 2.612 0 0 0 .454.835 2.194 2.194 0 0 0 .714.575 2.045 2.045 0 0 0 .938.212 2.417 2.417 0 0 0 .551-.067 2.227 2.227 0 0 0 .545-.206 1.945 1.945 0 0 0 .478-.363 1.7 1.7 0 0 0 .351-.551l1.622.957a2.527 2.527 0 0 1-.575.848 3.548 3.548 0 0 1-.878.63 4.82 4.82 0 0 1-2.141.521 3.851 3.851 0 0 1-1.713-.381 4.335 4.335 0 0 1-1.344-1.011 4.625 4.625 0 0 1-.872-1.429 4.468 4.468 0 0 1-.311-1.623zm16.22-4.223v8.6H98v-3.53h-3.428v3.523h-1.986V18.2h1.986v3.33H98V18.2zm3.632 3.681V26.8h-1.986v-8.6h1.55l4.008 5.049V18.2h1.986v8.6h-1.6zm10.97 4.988a4 4 0 0 1-1.744-.375 4.29 4.29 0 0 1-1.342-.994 4.523 4.523 0 0 1-.866-1.4 4.427 4.427 0 0 1-.308-1.622 4.366 4.366 0 0 1 2.579-3.978 4.112 4.112 0 0 1 1.719-.357 4 4 0 0 1 1.744.375 4.244 4.244 0 0 1 1.344.993 4.478 4.478 0 0 1 .86 1.4 4.427 4.427 0 0 1 .3 1.6 4.277 4.277 0 0 1-.321 1.635 4.347 4.347 0 0 1-2.245 2.349 4.053 4.053 0 0 1-1.72.371zm-2.24-4.359a3.216 3.216 0 0 0 .145.963 2.56 2.56 0 0 0 .43.829 2.189 2.189 0 0 0 2.669.57 2.152 2.152 0 0 0 .7-.6 2.629 2.629 0 0 0 .418-.835 3.317 3.317 0 0 0 .139-.95 3.216 3.216 0 0 0-.145-.963 2.441 2.441 0 0 0-.436-.823 2.162 2.162 0 0 0-.708-.569 2.106 2.106 0 0 0-.963-.212 2.06 2.06 0 0 0-.987.224 2.224 2.224 0 0 0-.7.587 2.5 2.5 0 0 0-.424.829 3.315 3.315 0 0 0-.137.947zm7.676 4.286V18.2h1.986v6.85h4.165v1.744zm10.849.073a4 4 0 0 1-1.744-.375 4.289 4.289 0 0 1-1.344-.987 4.5 4.5 0 0 1-.865-1.4 4.384 4.384 0 0 1-.309-1.622 4.366 4.366 0 0 1 2.579-3.978 4.112 4.112 0 0 1 1.719-.357 4 4 0 0 1 1.744.375 4.244 4.244 0 0 1 1.344.993 4.477 4.477 0 0 1 .86 1.4 4.427 4.427 0 0 1 .3 1.6 4.277 4.277 0 0 1-.321 1.635 4.347 4.347 0 0 1-2.245 2.349 4.053 4.053 0 0 1-1.717.364zm-2.24-4.359a3.216 3.216 0 0 0 .145.963 2.579 2.579 0 0 0 .429.829 2.122 2.122 0 0 0 .709.581 2.089 2.089 0 0 0 .969.218 2.05 2.05 0 0 0 .993-.23 2.152 2.152 0 0 0 .7-.6 2.6 2.6 0 0 0 .417-.835 3.279 3.279 0 0 0 .14-.95 3.215 3.215 0 0 0-.145-.963 2.441 2.441 0 0 0-.436-.823 2.173 2.173 0 0 0-.708-.569 2.1 2.1 0 0 0-.963-.212 2.063 2.063 0 0 0-.987.224 2.212 2.212 0 0 0-.7.587 2.481 2.481 0 0 0-.423.829 3.279 3.279 0 0 0-.139.948zm13.585 3.439a3.234 3.234 0 0 1-2.264.908 4.024 4.024 0 0 1-2.913-1.223 4.252 4.252 0 0 1-.889-1.4 4.8 4.8 0 0 1-.327-1.8 4.312 4.312 0 0 1 .327-1.671 4.233 4.233 0 0 1 .9-1.368 4.281 4.281 0 0 1 3.058-1.259 4.213 4.213 0 0 1 2.1.5 3.261 3.261 0 0 1 1.344 1.374l-1.477 1.114a2.113 2.113 0 0 0-.842-.9 2.325 2.325 0 0 0-1.192-.321 2.016 2.016 0 0 0-.9.2 2.071 2.071 0 0 0-.7.557 2.6 2.6 0 0 0-.448.829 3.207 3.207 0 0 0-.157 1.017 3.016 3.016 0 0 0 .17 1.029 2.523 2.523 0 0 0 .472.817 2.14 2.14 0 0 0 .721.539 2.169 2.169 0 0 0 .926.194 2.733 2.733 0 0 0 2.095-1.078v-.266h-1.671V22.3h3.318v4.492h-1.647zm2.954.848V18.2h1.986v8.6zm9.674-1.744V26.8H148.8v-8.6h5.933v1.74h-3.947v1.671h3.39v1.61h-3.39v1.829zm6.369-4.335a1.21 1.21 0 0 0-.254-.182 4.791 4.791 0 0 0-.545-.278A5.257 5.257 0 0 0 159.7 20a2.851 2.851 0 0 0-.775-.109q-1.065 0-1.066.714a.571.571 0 0 0 .114.363 1.022 1.022 0 0 0 .34.26 3.114 3.114 0 0 0 .562.212c.226.065.489.137.787.218a10.326 10.326 0 0 1 1.114.369 2.983 2.983 0 0 1 .841.5 2.018 2.018 0 0 1 .534.72 2.882 2.882 0 0 1-.086 2.246 2.288 2.288 0 0 1-.72.811 3.041 3.041 0 0 1-1.029.448 5.129 5.129 0 0 1-1.2.139 6.691 6.691 0 0 1-.969-.073 7 7 0 0 1-.969-.212 7.729 7.729 0 0 1-.915-.333 5.119 5.119 0 0 1-.817-.448l.872-1.731a1.7 1.7 0 0 0 .315.23 4.709 4.709 0 0 0 .659.339 6.806 6.806 0 0 0 .878.3 3.677 3.677 0 0 0 .981.133q1.053 0 1.053-.642a.543.543 0 0 0-.157-.4 1.473 1.473 0 0 0-.436-.285 4.707 4.707 0 0 0-.66-.236q-.381-.109-.829-.242a7.186 7.186 0 0 1-1.022-.391 2.732 2.732 0 0 1-.721-.49 1.779 1.779 0 0 1-.423-.642 2.345 2.345 0 0 1-.14-.848 2.7 2.7 0 0 1 .254-1.2 2.588 2.588 0 0 1 .69-.878 3 3 0 0 1 1.01-.539 4.023 4.023 0 0 1 1.217-.182 4.626 4.626 0 0 1 .884.085 6.647 6.647 0 0 1 .835.218 5.979 5.979 0 0 1 .745.3q.345.17.635.339z" class="cls-1" transform="translate(-4.756 -11.802)"/>
            <path id="Path_122" d="M1.432-4.82a2.739 2.739 0 0 1 2.016-.836 2.752 2.752 0 0 1 2.02.836A2.752 2.752 0 0 1 6.3-2.8a2.752 2.752 0 0 1-.832 2.02 2.752 2.752 0 0 1-2.02.836A2.739 2.739 0 0 1 1.432-.78 2.759 2.759 0 0 1 .6-2.8a2.759 2.759 0 0 1 .832-2.02zm3.768.244A2.385 2.385 0 0 0 3.448-5.3a2.371 2.371 0 0 0-1.748.72A2.42 2.42 0 0 0 .984-2.8 2.42 2.42 0 0 0 1.7-1.024 2.371 2.371 0 0 0 3.448-.3 2.381 2.381 0 0 0 5.2-1.024 2.42 2.42 0 0 0 5.92-2.8a2.413 2.413 0 0 0-.72-1.776zM11.872 0l-1.136-1.76q-.208-.32-.3-.436a2.218 2.218 0 0 0-.24-.26.675.675 0 0 0-.312-.18 1.909 1.909 0 0 0-.408-.036h-1.1V0h-.384v-5.6h.384v2.568h.992a1.909 1.909 0 0 0 .408-.036.675.675 0 0 0 .312-.18 2.218 2.218 0 0 0 .24-.26q.088-.116.3-.436l1.06-1.656h.448l-1.184 1.816q-.2.3-.3.444a1.964 1.964 0 0 1-.232.268 1 1 0 0 1-.268.192.941.941 0 0 1 .424.28 6.423 6.423 0 0 1 .488.68L12.312 0zm3.416-5.656h.1a2.6 2.6 0 0 1 1.124.244 2.062 2.062 0 0 1 .828.692l-.248.232a1.813 1.813 0 0 0-.732-.6 2.3 2.3 0 0 0-.972-.208h-.1a1.764 1.764 0 0 0-1.024.308.964.964 0 0 0-.448.836.765.765 0 0 0 .308.648 2.243 2.243 0 0 0 1.02.328l.688.1a2.416 2.416 0 0 1 1.284.476 1.327 1.327 0 0 1 .42 1.06 1.383 1.383 0 0 1-.588 1.156 2.276 2.276 0 0 1-1.412.444h-.048A2.671 2.671 0 0 1 14.1-.284a1.894 1.894 0 0 1-.812-.924l.248-.232a1.669 1.669 0 0 0 .708.832 2.356 2.356 0 0 0 1.244.3h.048a1.9 1.9 0 0 0 1.144-.34 1.058 1.058 0 0 0 .472-.9 1 1 0 0 0-.328-.808A1.947 1.947 0 0 0 15.8-2.72l-.688-.1a2.622 2.622 0 0 1-1.272-.432 1.074 1.074 0 0 1-.408-.9 1.31 1.31 0 0 1 .552-1.092 2.092 2.092 0 0 1 1.304-.412zM25.416 0h-.28l-.016-1.064a1.9 1.9 0 0 1-.708.8 1.91 1.91 0 0 1-1.06.308 1.94 1.94 0 0 1-1.436-.6A1.99 1.99 0 0 1 21.328-2a2 2 0 0 1 .588-1.456 1.934 1.934 0 0 1 1.436-.6 1.91 1.91 0 0 1 1.06.308 1.9 1.9 0 0 1 .708.812L25.136-4h.28zm-2.032-.3a1.632 1.632 0 0 0 1.192-.492A1.64 1.64 0 0 0 25.072-2a1.653 1.653 0 0 0-.5-1.216 1.625 1.625 0 0 0-1.192-.5 1.621 1.621 0 0 0-1.2.5A1.66 1.66 0 0 0 21.7-2a1.647 1.647 0 0 0 .492 1.212 1.628 1.628 0 0 0 1.192.488zm7.584.3h-.28l-.016-1.064a1.9 1.9 0 0 1-.708.8A1.91 1.91 0 0 1 28.9.048a1.94 1.94 0 0 1-1.436-.6A1.99 1.99 0 0 1 26.88-2a2 2 0 0 1 .588-1.456 1.934 1.934 0 0 1 1.436-.6 1.828 1.828 0 0 1 1.02.3 1.854 1.854 0 0 1 .684.78V-5.6h.36zm-2.032-.3a1.632 1.632 0 0 0 1.192-.492A1.64 1.64 0 0 0 30.624-2a1.653 1.653 0 0 0-.5-1.216 1.625 1.625 0 0 0-1.192-.5 1.621 1.621 0 0 0-1.2.5A1.66 1.66 0 0 0 27.248-2a1.647 1.647 0 0 0 .492 1.212 1.628 1.628 0 0 0 1.2.488zm9.1-3.76a1.677 1.677 0 0 1 1.276.492 1.934 1.934 0 0 1 .468 1.388V0h-.368v-2.16a1.615 1.615 0 0 0-.376-1.16A1.362 1.362 0 0 0 38-3.712a1.472 1.472 0 0 0-1.16.488 1.957 1.957 0 0 0-.432 1.344V0h-.368v-2.16a1.615 1.615 0 0 0-.376-1.16 1.373 1.373 0 0 0-1.04-.392 1.466 1.466 0 0 0-1.16.492 1.96 1.96 0 0 0-.432 1.34V0h-.36v-4h.28l.024 1.048a1.615 1.615 0 0 1 .7-.832 1.958 1.958 0 0 1 .992-.272 1.751 1.751 0 0 1 1.06.312 1.519 1.519 0 0 1 .572.912 1.661 1.661 0 0 1 .7-.92 1.94 1.94 0 0 1 1.032-.3zm3.828-.58a.233.233 0 0 1-.172.068.233.233 0 0 1-.172-.068.215.215 0 0 1-.068-.156.224.224 0 0 1 .068-.164.233.233 0 0 1 .172-.068.233.233 0 0 1 .172.068.224.224 0 0 1 .068.164.215.215 0 0 1-.072.16zM41.512 0v-4h.36v4zm4.112-4.056a1.677 1.677 0 0 1 1.276.492 1.934 1.934 0 0 1 .468 1.388V0H47v-2.16a1.615 1.615 0 0 0-.376-1.16 1.373 1.373 0 0 0-1.04-.392 1.466 1.466 0 0 0-1.16.492 1.96 1.96 0 0 0-.432 1.34V0h-.36v-4h.28l.024 1.048a1.615 1.615 0 0 1 .7-.832 1.958 1.958 0 0 1 .988-.272zm7.848 0a1.934 1.934 0 0 1 1.436.6A2 2 0 0 1 55.5-2a1.99 1.99 0 0 1-.588 1.452 1.94 1.94 0 0 1-1.436.6 1.846 1.846 0 0 1-1.02-.3 1.828 1.828 0 0 1-.684-.776v2.5h-.36V-4h.28l.008 1.064a1.887 1.887 0 0 1 .712-.812 1.916 1.916 0 0 1 1.06-.308zm1.172.844a1.628 1.628 0 0 0-1.2-.492 1.628 1.628 0 0 0-1.2.492A1.647 1.647 0 0 0 51.76-2a1.647 1.647 0 0 0 .492 1.212 1.628 1.628 0 0 0 1.2.492 1.628 1.628 0 0 0 1.2-.492A1.647 1.647 0 0 0 55.136-2a1.647 1.647 0 0 0-.492-1.212zM60.808 0h-.28l-.016-1.064a1.905 1.905 0 0 1-.708.8 1.91 1.91 0 0 1-1.06.308 1.94 1.94 0 0 1-1.436-.6A1.99 1.99 0 0 1 56.72-2a2 2 0 0 1 .588-1.456 1.934 1.934 0 0 1 1.436-.6 1.91 1.91 0 0 1 1.06.308 1.9 1.9 0 0 1 .708.812L60.528-4h.28zm-2.032-.3a1.632 1.632 0 0 0 1.192-.492A1.64 1.64 0 0 0 60.464-2a1.653 1.653 0 0 0-.5-1.216 1.625 1.625 0 0 0-1.192-.5 1.621 1.621 0 0 0-1.2.5A1.66 1.66 0 0 0 57.088-2a1.647 1.647 0 0 0 .492 1.212 1.628 1.628 0 0 0 1.2.488zM64.5-4.056a1.677 1.677 0 0 1 1.276.492 1.934 1.934 0 0 1 .468 1.388V0h-.364v-2.16a1.615 1.615 0 0 0-.38-1.16 1.373 1.373 0 0 0-1.04-.392 1.466 1.466 0 0 0-1.16.492 1.96 1.96 0 0 0-.432 1.34V0h-.36v-4h.28l.024 1.048a1.615 1.615 0 0 1 .7-.832 1.958 1.958 0 0 1 .988-.272zm5.208 0a1.915 1.915 0 0 1 1.124.332 1.894 1.894 0 0 1 .692.884 1.676 1.676 0 0 1 .1.476 1.153 1.153 0 0 1-.024.428h-3.56a1.553 1.553 0 0 0 .484 1.2 1.831 1.831 0 0 0 1.268.452 2.334 2.334 0 0 0 1.472-.5l.208.224a2.585 2.585 0 0 1-1.68.608A2.158 2.158 0 0 1 68.26-.52 1.949 1.949 0 0 1 67.672-2a2.029 2.029 0 0 1 .572-1.46 1.945 1.945 0 0 1 1.468-.6zm.008.336a1.614 1.614 0 0 0-1.156.436 1.574 1.574 0 0 0-.5 1.084h3.224a1.221 1.221 0 0 0-.088-.536 1.538 1.538 0 0 0-.56-.716 1.567 1.567 0 0 0-.916-.268zM73.1 0v-5.6h.368V0z" class="cls-1" data-name="Path 122" transform="translate(37 26)"/>
        </g>
    </g>
</svg>
