<svg width="22px" height="22px" viewBox="0 0 22 22" version="1.1" xmlns="http://www.w3.org/2000/svg" xmlns:xlink="http://www.w3.org/1999/xlink">
    <g id="Symbols" stroke="none" stroke-width="1" fill="none" fill-rule="evenodd">
        <g id="menu" transform="translate(-26.000000, -557.000000)" fill="#FFFFFF">
            <g id="Group-3">
                <g id="Element/Icon/Help" transform="translate(25.000000, 556.000000)">
                    <path d="M12,1 C18.0751322,1 23,5.92486775 23,12 C23,18.0751322 18.0751322,23 12,23 C5.92486775,23 1,18.0751322 1,12 C1,5.92486775 5.92486775,1 12,1 Z M12.8927951,15.2621528 L11.2301432,15.2621528 L11.2301432,17 L12.8927951,17 L12.8927951,15.2621528 Z M12.2327474,4.56770833 C10.453125,4.56770833 10.453125,4.56770833 9.43381076,5.6663954 C8.49290532,6.68056808 8.49290532,6.68056808 8.42052797,8.29630325 L8.41449653,8.56976997 L9.90169271,8.56976997 C9.94346788,7.48361545 9.94346788,7.48361545 10.2442491,6.90711806 C10.7789714,5.87109375 10.7789714,5.87109375 12.1742622,5.87109375 C13.3021918,5.87109375 13.3021918,5.87109375 13.7909614,6.47265625 C14.2797309,7.07421875 14.2797309,7.07421875 14.2797309,7.89301215 C14.2797309,8.47786458 14.2797309,8.47786458 13.9455295,9.02094184 C13.8076714,9.25279405 13.8076714,9.25279405 13.6040175,9.47054715 L13.4609375,9.61414931 L12.7925347,10.274197 C11.8317057,11.218316 11.8317057,11.218316 11.5476345,11.9493815 C11.2990723,12.5890639 11.2990723,12.5890639 11.268002,13.5837699 L11.2635634,13.875217 L12.7507595,13.875217 C12.7507595,12.8224826 12.7507595,12.8224826 12.988878,12.2835829 C13.2269965,11.7446832 13.2269965,11.7446832 14.0290799,10.9676649 C15.1319444,9.89822049 15.1319444,9.89822049 15.4953885,9.34678819 C15.8588325,8.7953559 15.8588325,8.7953559 15.8588325,7.90972222 C15.8588325,6.44759115 15.8588325,6.44759115 14.8687609,5.50764974 C13.8786892,4.56770833 13.8786892,4.56770833 12.2327474,4.56770833 Z" id="Icon"></path>
                </g>
            </g>
        </g>
    </g>
</svg>