<svg width="20px" height="18px" viewBox="0 0 20 18" version="1.1" xmlns="http://www.w3.org/2000/svg" xmlns:xlink="http://www.w3.org/1999/xlink">
    <g id="Symbols" stroke="none" stroke-width="1" fill="none" fill-rule="evenodd">
        <g id="menu" transform="translate(-27.000000, -743.000000)" fill="#FFFFFF">
            <g id="Group-3">
                <g id="Element/Icon/Dashboard" transform="translate(25.000000, 740.000000)">
                    <path d="M6.99212123,3 C7.38136892,3 7.75311157,3.16175618 8.01842601,3.44657545 L10.9478896,6.59140126 C11.0363277,6.68634101 11.160242,6.74025974 11.2899912,6.74025974 L21.1688312,6.74025974 C21.4270422,6.74025974 21.6363636,6.94958116 21.6363636,7.20779221 L21.6363636,17.4935065 C21.6363636,19.3009839 20.1711137,20.7662338 18.3636364,20.7662338 L5.27272727,20.7662338 C3.46524991,20.7662338 2,19.3009839 2,17.4935065 L2,5.933264 C2,4.31326703 3.31326703,3 4.933264,3 L6.99212123,3 Z M18.8311688,3.93506494 C20.0662825,3.93506494 21.1149602,4.73329236 21.4894666,5.84201183 C21.3864894,5.81793051 21.2791476,5.80519481 21.1688312,5.80519481 L11.4934283,5.80519481 L9.75136767,3.93506494 L18.8311688,3.93506494 Z" id="Shape"></path>
                </g>
            </g>
        </g>
    </g>
</svg>