<svg width="21px" height="20px" viewBox="0 0 21 20" version="1.1" xmlns="http://www.w3.org/2000/svg" xmlns:xlink="http://www.w3.org/1999/xlink">
    <g id="Symbols" stroke="none" stroke-width="1" fill="none" fill-rule="evenodd">
        <g id="menu" transform="translate(-26.000000, -435.000000)" fill="#FFFFFF">
            <g id="Group-3">
                <g id="Element/Icon/Schedule" transform="translate(25.000000, 433.000000)">
                    <path d="M21.5064935,9.35064935 L21.5064935,17.2987013 C21.5064935,19.6226008 19.6226008,21.5064935 17.2987013,21.5064935 L6.07792208,21.5064935 C3.75402261,21.5064935 1.87012987,19.6226008 1.87012987,17.2987013 L1.87012987,9.35064935 L21.5064935,9.35064935 Z M14.5025041,11.5117523 L10.2550174,16.1192412 L8.2323493,13.99359 C8.04199333,13.7935421 7.72550849,13.7856853 7.52546063,13.9760413 C7.32541277,14.1663972 7.31755595,14.4828821 7.50791192,14.6829299 L9.89858165,17.1953194 C10.0978087,17.40469 10.4325322,17.4020435 10.6284237,17.1895489 L15.2377509,12.1895511 C15.4249199,11.9865184 15.4120597,11.6701973 15.209027,11.4830283 C15.0059942,11.2958593 14.6896731,11.3087195 14.5025041,11.5117523 Z M5.61038961,3.74025974 L5.61038961,5.14285714 C5.61038961,5.9174903 6.23835386,6.54545455 7.01298701,6.54545455 C7.78762017,6.54545455 8.41558442,5.9174903 8.41558442,5.14285714 L8.41558442,3.74025974 L14.961039,3.74025974 L14.961039,5.14285714 C14.961039,5.9174903 15.5890032,6.54545455 16.3636364,6.54545455 C17.1382695,6.54545455 17.7662338,5.9174903 17.7662338,5.14285714 L17.7662338,3.74025974 L20.1038961,3.74025974 C20.8785293,3.74025974 21.5064935,4.36822399 21.5064935,5.14285714 L21.5064935,8.41558442 L1.87012987,8.41558442 L1.87012987,5.14285714 C1.87012987,4.36822399 2.49809412,3.74025974 3.27272727,3.74025974 L5.61038961,3.74025974 Z M16.3636364,2.80519481 C16.6218474,2.80519481 16.8311688,3.01451622 16.8311688,3.27272727 L16.8311688,5.14285714 C16.8311688,5.40106819 16.6218474,5.61038961 16.3636364,5.61038961 C16.1054253,5.61038961 15.8961039,5.40106819 15.8961039,5.14285714 L15.8961039,3.27272727 C15.8961039,3.01451622 16.1054253,2.80519481 16.3636364,2.80519481 Z M7.01298701,2.80519481 C7.27119806,2.80519481 7.48051948,3.01451622 7.48051948,3.27272727 L7.48051948,5.14285714 C7.48051948,5.40106819 7.27119806,5.61038961 7.01298701,5.61038961 C6.75477596,5.61038961 6.54545455,5.40106819 6.54545455,5.14285714 L6.54545455,3.27272727 C6.54545455,3.01451622 6.75477596,2.80519481 7.01298701,2.80519481 Z" id="Shape"></path>
                </g>
            </g>
        </g>
    </g>
</svg>