<svg width="20px" height="20px" viewBox="0 0 20 20" version="1.1" xmlns="http://www.w3.org/2000/svg" xmlns:xlink="http://www.w3.org/1999/xlink">
    <g id="Symbols" stroke="none" stroke-width="1" fill="none" fill-rule="evenodd">
        <g id="menu" transform="translate(-27.000000, -373.000000)" fill="#FFFFFF">
            <g id="Group-3">
                <g id="Element/Icon/Setting" transform="translate(25.000000, 371.000000)">
                    <path d="M13.4860681,2 C13.7642371,2 14.0043799,2.19485049 14.0616856,2.46705266 L14.4615688,4.36649793 C14.8733,4.49917471 15.2728337,4.66496785 15.6566906,4.86197977 L17.2829798,3.8013564 C17.5159771,3.64940166 17.8235638,3.6814282 18.020259,3.87812335 L20.1218767,5.97974103 C20.3185718,6.17643618 20.3505983,6.48402292 20.1986436,6.71702018 L19.1380202,8.34330935 C19.3350321,8.72716634 19.5008253,9.1267 19.6335021,9.53843115 L21.5329473,9.93831437 C21.8051495,9.99562009 22,10.2357629 22,10.5139319 L22,13.4860681 C22,13.7642371 21.8051495,14.0043799 21.5329473,14.0616856 L19.6335021,14.4615688 C19.5008253,14.8733 19.3350321,15.2728337 19.1380202,15.6566906 L20.1986436,17.2829798 C20.3505983,17.5159771 20.3185718,17.8235638 20.1218767,18.020259 L18.020259,20.1218767 C17.8235638,20.3185718 17.5159771,20.3505983 17.2829798,20.1986436 L15.6566906,19.1380202 C15.2728337,19.3350321 14.8733,19.5008253 14.4615688,19.6335021 L14.0616856,21.5329473 C14.0043799,21.8051495 13.7642371,22 13.4860681,22 L10.5139319,22 C10.2357629,22 9.99562009,21.8051495 9.93831437,21.5329473 L9.53843115,19.6335021 C9.1267,19.5008253 8.72716634,19.3350321 8.34330935,19.1380202 L6.71702018,20.1986436 C6.48402292,20.3505983 6.17643618,20.3185718 5.97974103,20.1218767 L3.87812335,18.020259 C3.6814282,17.8235638 3.64940166,17.5159771 3.8013564,17.2829798 L4.86197977,15.6566906 C4.66496785,15.2728337 4.49917471,14.8733 4.36649793,14.4615688 L2.46705266,14.0616856 C2.19485049,14.0043799 2,13.7642371 2,13.4860681 L2,10.5139319 C2,10.2357629 2.19485049,9.99562009 2.46705266,9.93831437 L4.36649793,9.53843115 C4.49917471,9.1267 4.66496785,8.72716634 4.86197977,8.34330935 L3.8013564,6.71702018 C3.64940166,6.48402292 3.6814282,6.17643618 3.87812335,5.97974103 L5.97974103,3.87812335 C6.17643618,3.6814282 6.48402292,3.64940166 6.71702018,3.8013564 L8.34330935,4.86197977 C8.72716634,4.66496785 9.1267,4.49917471 9.53843115,4.36649793 L9.93831437,2.46705266 C9.99562009,2.19485049 10.2357629,2 10.5139319,2 L13.4860681,2 Z M12,7.88235294 C9.72588632,7.88235294 7.88235294,9.72588632 7.88235294,12 C7.88235294,14.2741137 9.72588632,16.1176471 12,16.1176471 C14.2741137,16.1176471 16.1176471,14.2741137 16.1176471,12 C16.1176471,9.72588632 14.2741137,7.88235294 12,7.88235294 Z M12,9.05882353 C13.6243669,9.05882353 14.9411765,10.3756331 14.9411765,12 C14.9411765,13.6243669 13.6243669,14.9411765 12,14.9411765 C10.3756331,14.9411765 9.05882353,13.6243669 9.05882353,12 C9.05882353,10.3756331 10.3756331,9.05882353 12,9.05882353 Z" id="Combined-Shape"></path>
                </g>
            </g>
        </g>
    </g>
</svg>