<svg id="Group-65" xmlns="http://www.w3.org/2000/svg" width="60" height="60" viewBox="0 0 60 60">
  <circle id="Oval" cx="30" cy="30" r="30" transform="translate(0 0)" fill="#fff"/>
  <path id="Combined-Shape" d="M13.005,9.706h.24a3.171,3.171,0,0,1,3.212,3.144v17.13a3.171,3.171,0,0,1-3.212,3.146H13V30.919h.244a.951.951,0,0,0,.967-.936V12.85a.967.967,0,0,0-.967-.936H13ZM11,11.912a.967.967,0,0,0-.967.936v17.13a.936.936,0,0,0,.967.936h.263v2.208H11a3.21,3.21,0,0,1-3.229-3.146V12.85A3.21,3.21,0,0,1,11,9.706h.263v2.206ZM24.834,23.23l2.665,9.9h-2.32l-2.672-9.9Zm-5.8-5.455V9.706h2.253v8.062Zm2.253,3.749v11.6H19.031V19.475h3.094L25.2,9.706h2.32L23.994,20.148l.387,1.373Zm13.969.938a5.347,5.347,0,0,1,1.16,3.542v3.981a3.193,3.193,0,0,1-3.21,3.146H31.629a3.169,3.169,0,0,1-3.21-3.146V26.4h2.253v3.581a.949.949,0,0,0,.967.936h1.576a.951.951,0,0,0,.967-.936V26a3.22,3.22,0,0,0-.733-2.241l-.131-.168V20.136Zm-3.7-.938-2.009-2.411a5.414,5.414,0,0,1-1.127-3.543V12.864a3.214,3.214,0,0,1,3.21-3.144H33.2a3.192,3.192,0,0,1,3.21,3.144v2.61H34.164v-2.61a.967.967,0,0,0-.967-.936H31.621a.967.967,0,0,0-.967.936v2.707a3.347,3.347,0,0,0,.714,2.241l.168.193Z" transform="translate(7.216 9.033)" fill="#1865ff"/>
</svg>
